<?xml version="1.0" encoding="UTF-8" standalone="no"?>
<!-- Uploaded to: SVG Repo, www.svgrepo.com, Generator: SVG Repo Mixer Tools -->

<svg
   width="800"
   height="800"
   viewBox="0 0 16 16"
   version="1.1"
   id="svg1"
   xmlns="http://www.w3.org/2000/svg"
   xmlns:svg="http://www.w3.org/2000/svg">
  <defs
     id="defs1" />
  <path
     d="M 4,3 C 3.445312,3 3,3.445312 3,4 3,4.554688 3.445312,5 4,5 4.554688,5 5,4.554688 5,4 5,3.445312 4.554688,3 4,3 Z M 8,3 C 7.445312,3 7,3.445312 7,4 7,4.554688 7.445312,5 8,5 8.554688,5 9,4.554688 9,4 9,3.445312 8.554688,3 8,3 Z m 4,0 c -0.554688,0 -1,0.445312 -1,1 0,0.554688 0.445312,1 1,1 0.554688,0 1,-0.445312 1,-1 C 13,3.445312 12.554688,3 12,3 Z M 4,7 C 3.445312,7 3,7.445312 3,8 3,8.554688 3.445312,9 4,9 4.554688,9 5,8.554688 5,8 5,7.445312 4.554688,7 4,7 Z M 8,7 C 7.445312,7 7,7.445312 7,8 7,8.554688 7.445312,9 8,9 8.554688,9 9,8.554688 9,8 9,7.445312 8.554688,7 8,7 Z m 4,0 c -0.554688,0 -1,0.445312 -1,1 0,0.554688 0.445312,1 1,1 0.554688,0 1,-0.445312 1,-1 0,-0.554688 -0.445312,-1 -1,-1 z m -8,4 c -0.554688,0 -1,0.445312 -1,1 0,0.554688 0.445312,1 1,1 0.554688,0 1,-0.445312 1,-1 0,-0.554688 -0.445312,-1 -1,-1 z m 4,0 c -0.554688,0 -1,0.445312 -1,1 0,0.554688 0.445312,1 1,1 0.554688,0 1,-0.445312 1,-1 0,-0.554688 -0.445312,-1 -1,-1 z m 4,0 c -0.554688,0 -1,0.445312 -1,1 0,0.554688 0.445312,1 1,1 0.554688,0 1,-0.445312 1,-1 0,-0.554688 -0.445312,-1 -1,-1 z m 0,0"
     fill="#2e3436"
     id="path1"
     style="fill-opacity:1" />
</svg>
